<?xml version="1.0" encoding="utf-8"?>
<!-- Generator: Adobe Illustrator 28.1.0, SVG Export Plug-In . SVG Version: 6.00 Build 0)  -->
<svg version="1.1" id="Layer_1" xmlns="http://www.w3.org/2000/svg" xmlns:xlink="http://www.w3.org/1999/xlink" x="0px" y="0px"
	 viewBox="0 0 566.9 566.9" style="enable-background:new 0 0 566.9 566.9;" xml:space="preserve">
<style type="text/css">
	.st0{fill:#FFFFFF;}
</style>
<g>
	<path class="st0" d="M128.7,392c0.3-2.7,0-5.3-0.9-7.9c-0.5-1.6-1.3-3.1-2.2-4.5c-1.5-2.3-3.5-4-6-5.1c-0.9-0.4-1.8-0.7-2.7-1.1
		c-1.1-0.4-2.2-0.7-3.3-1.1c-0.8-0.3-1.7-0.6-2.5-0.9c-2.1-0.8-3.4-2.2-3.8-4.4c-0.2-0.9-0.4-1.7-0.5-2.6c-0.3-1.4-0.8-2.7-1.7-3.8
		c-0.2-0.3-0.4-0.6-0.6-0.9c-0.7-1-1-2.1-1-3.3c0-0.6,0.1-1.2,0.2-1.9c0.2-1.1,0.3-2.1,0.5-3.2c0.4-2.4-0.1-4.6-1.2-6.7
		c-0.9-1.7-2-3.1-3.3-4.5c-0.7-0.8-1.5-1.5-2.3-2.2c-1.8-1.6-2.2-3.6-1.3-5.8c0.4-0.9,0.7-1.8,1-2.8c0.5-1.6,0.5-3.1,0-4.7
		c-0.2-0.6-0.4-1.2-0.6-1.8c-0.3-0.7-0.5-1.3-0.9-1.9c-1.9-3.4-2.8-7.1-3.1-10.9c-0.5-5.5-1.2-10.9-1.6-16.4
		c-0.8-9.3-0.6-18.6,0.8-27.9c0.5-3.3,1.3-6.4,2.3-9.6c0.3-0.8,0.5-1.5,0.8-2.3c0.4-1.2,0.4-2.4-0.2-3.6c-0.2-0.4-0.4-0.8-0.5-1.2
		c-0.5-1.6,0.4-3.5,2-4.2c0.4-0.2,0.9-0.2,1.3,0.1c0.4,0.3,0.9,0.6,1.3,1c0.6,0.5,1.1,1.1,1.7,1.7c0.7,0.7,1.6,1.1,2.6,1.3
		c1.1,0.2,2.1,0,3-0.6c0.5-0.4,0.9-0.8,1.4-1.2c0.8-0.6,1.6-0.7,2.4-0.1c0.5,0.4,1,0.8,1.5,1.2c0.4,0.3,0.8,0.7,1.2,1
		c1,0.7,2,1.1,3.2,1.1c1,0,2,0,2.9-0.1c1.8-0.2,3.5-0.3,5.3-0.4c0.5,0,1.1,0,1.6-0.1c2.1-0.2,4-0.8,5.7-2.1c0.6-0.5,1.3-0.9,1.9-1.4
		c1.4-1,3-1.6,4.7-1.7c2.4-0.1,4.5-0.7,6.5-2c2.1-1.4,4.3-1,6.1,0.7c0.8,0.8,1.1,1.8,0.7,2.9c-0.3,0.6-0.6,1.3-1,1.9
		c-0.5,0.7-1,1.5-1.5,2.2c-1.1,1.5-1.8,3.2-2.2,5.1c-0.2,0.8-0.3,1.6-0.4,2.4c-0.3,2.1-1,4.1-1.9,6.1c-0.4,0.9-0.8,1.8-1.2,2.7
		c-0.3,0.7-0.6,1.5-0.9,2.2c-1.1,3-1.3,6.1-0.2,9.1c0.4,1.2,0.8,2.3,1.2,3.5c0.4,1.1,0.7,2.2,1,3.3c0.9,3.6-0.1,6.7-2.5,9.4
		c-0.8,0.9-1.8,1.7-2.8,2.4c-1.2,0.8-2.4,1.6-3.5,2.4c-0.8,0.6-1.5,1.2-2.2,1.9c-0.3,0.3-0.5,0.7-0.7,1.1c-0.2,0.4-0.2,0.9,0.1,1.3
		c0.3,0.4,0.7,0.8,1.1,1.1c0.6,0.5,1.3,0.9,1.9,1.4c1.2,0.9,2.1,2.2,2.5,3.7c0.2,0.9,0.3,1.7,0.5,2.6c0.1,1.1,0.2,2.1,0.4,3.2
		c0.3,2.7,1.6,4.9,3.6,6.7c0.7,0.6,1.4,1.1,2.1,1.6c0.7,0.5,1.5,1,2.2,1.5c1.9,1.3,3.2,3,4,5.2c0.4,0.9,0.6,1.8,1,2.8
		c0.2,0.7,0.5,1.3,0.7,2c0.7,1.7,2.1,2.6,3.9,2.9c1.4,0.2,2.8,0.1,4.2-0.2c1.3-0.3,2.5-0.8,3.7-1.4c1-0.6,2-1.1,3-1.7
		c2.7-1.6,5.5-3,8.4-4c6.5-2.4,6.9-2.6,12.4-6c0.5-0.3,0.9-0.5,1.4-0.8c2-1.2,4.2-2,6.5-2.1c0.4,0,0.7-0.1,1.1-0.1
		c1.1-0.1,2-0.6,2.8-1.4c0.6-0.6,1.2-1.3,1.8-2c0.9-1,2-1.8,3.4-2c1.2-0.2,2.2-0.7,3.1-1.4c1.5-1.3,3.2-1.9,5-2.2
		c3.1-0.5,5.7-1.9,8.2-3.7c0.8-0.6,1.6-1.2,2.3-1.8c1.4-1,2.8-1.8,4.5-2.2c0.4-0.1,0.9-0.2,1.3-0.3c1.1-0.3,2-0.8,2.7-1.6
		c0.2-0.3,0.5-0.5,0.7-0.8c0.8-1,1.9-1.6,3.1-2c0.6-0.2,1.2-0.4,1.8-0.6c1.1-0.4,2.1-1,2.8-1.9c1.9-2.3,2.5-2.8,5.3-3.3
		c0.3,0,0.5-0.2,0.7-0.3c0.6-0.3,1-0.7,1.2-1.4c0.8-2.6-0.4-5.3-2.9-6.3c-0.2-0.1-0.5-0.2-0.8-0.3c-1.5-0.4-2.8-1.2-3.8-2.3
		c-0.3-0.3-0.7-0.6-1-0.9c-0.6-0.5-1.4-0.8-2.2-0.9c-0.5,0-1.1,0-1.6-0.1c-1-0.1-1.9-0.6-2.4-1.4c-0.4-0.5-0.7-1.1-1-1.6
		c-0.3-0.5-0.6-1.1-1-1.6c-0.6-0.8-1.4-1.1-2.3-0.8c-0.7,0.3-1.5,0.6-2.2,0.9c-0.8,0.3-1.6,0.7-2.5,0.9c-1,0.3-1.9,0.1-2.8-0.3
		c-0.4-0.2-0.8-0.4-1.2-0.7c-0.9-0.6-2-0.8-3.1-0.7c-0.9,0-1.8,0.1-2.7,0.1c-1.3,0-2.4-0.4-3.4-1.2c-1.1-0.8-1.9-1.8-2.7-2.9
		c-0.7-1-1.4-2.1-2-3.1c-0.6-0.9-1.1-1.8-1.8-2.7c-2.1-2.9-5.1-4-8.6-3.8c-1.2,0.1-2.5,0.3-3.7,0.5c-1,0.2-1.9,0.4-2.9,0.6
		c-0.7,0.1-1.4,0.2-2.1,0.3c-2.3,0.2-4.4-0.3-6.2-1.7c-0.6-0.5-1.3-0.9-1.9-1.4c-1.3-0.9-2.6-1.4-4.2-1.7c-1-0.2-1.9-0.3-2.9-0.5
		c-0.7-0.1-1.4-0.3-2-0.6c-1.2-0.5-1.8-1.4-2-2.6c-0.1-0.5-0.1-1.1-0.1-1.6c0-1.8,0.3-3.5,0.9-5.2c0.2-0.7,0.5-1.3,0.9-1.9
		c0.6-1.1,1.6-2,2.8-2.3c2.4-0.5,4.5-1.6,6.5-3c1.7-1.2,3.8-1.5,5.9-1.2c1.9,0.2,3.7,0.8,5.3,1.7c1.3,0.7,2.6,1.6,3.8,2.4
		c1.3,0.9,2.6,1.8,4,2.7c2.9,1.9,6,3.1,9.5,3.2c0.4,0,0.7,0.1,1.1,0.1c2.4,0.2,4.5,1,6.4,2.5c0.7,0.6,1.4,1.1,2.2,1.5
		c1,0.7,2.2,1.2,3.5,1.3c0.8,0.1,1.6,0.2,2.4,0.3c1.5,0.1,2.7,0.7,3.9,1.6c0.6,0.4,1.1,0.9,1.7,1.3c1.6,1.3,3.4,2,5.4,1.9
		c0.5,0,1.1,0,1.6,0c1.9-0.1,3.7,0.4,5.3,1.5c0.6,0.4,1.2,0.8,1.8,1.1c0.7,0.3,1.5,0.7,2.2,0.9c1.4,0.4,2.2,0.1,3-1
		c0.3-0.4,0.6-0.9,0.8-1.4c0.8-1.3,1.9-2.4,3.2-3.1c0.9-0.5,1.9-1,2.8-1.5c1-0.5,2.1-1.1,3-1.6c1.2-0.7,2.2-1.5,3.1-2.5
		c1.1-1.2,0.9-1.9,0.4-2.9c-0.2-0.3-0.4-0.6-0.5-0.9c-0.6-1.2-0.6-2.4-0.2-3.6c0.3-1,1.2-1.7,2.2-1.5c2.2,0.4,4.2-0.1,6.3-0.8
		c0.8-0.3,1.5-0.4,2.3-0.7c1.3-0.4,2.5-0.2,3.6,0.4c0.8,0.4,1.6,0.8,2.3,1.3c0.9,0.5,1.9,1,2.9,1.3c1.1,0.3,2.1,0.3,3.2,0
		c0.4-0.1,0.8-0.3,1.3-0.4c1.4-0.5,2.6-0.4,3.8,0.5c0.5,0.4,1,0.7,1.5,1.1c0.8,0.6,1.7,1,2.7,1.2c1.1,0.3,2.1,0.1,3-0.7
		c0.6-0.5,1.2-1.1,1.7-1.7c1.4-1.7,3.1-2.9,5-4c0.3-0.2,0.6-0.3,1-0.4c0.5-0.2,1-0.3,1.6-0.1c0.7,0.3,1.3,0.5,1.9,0.8
		c1.5,0.9,3.2,1.6,5,1.8c0.3,0,0.5,0.1,0.8,0.2c2.2,0.4,3.3,2.7,2.8,4.7c-0.2,0.7-0.5,1.3-0.8,2c-0.5,1.3-0.3,2.4,0.6,3.5
		c0.2,0.2,0.3,0.4,0.6,0.6c2.2,1.8,4.7,3.2,7.5,3.9c1.1,0.3,2.2,0.2,3.1-0.4c2.1-1.3,4.5-2.1,6.8-3.1c1.1-0.4,2-1.1,3-1.7
		c1.7-1,3.3-2.1,5-3c1.2-0.7,2.4-1.5,3.5-2.4c0.7-0.6,1.4-1.1,2.1-1.6c1.2-0.9,2.6-1.2,4-1c0.9,0.1,1.8,0.3,2.6,0.5
		c0.9,0.2,1.9,0.6,2.8,0.8c0.9,0.3,1.9,0.5,2.8,0.7c1.5,0.3,3,0.3,4.5-0.1c0.7-0.2,1.4-0.4,2.1-0.5c2-0.4,3.9-0.4,5.8,0.4
		c0.6,0.3,1.3,0.6,1.8,1.1c0.9,0.7,1.2,1.7,0.9,2.9c-0.2,0.6-0.4,1.2-0.7,1.7c-0.9,1.5-2.1,2.6-3.6,3.4c-1,0.5-2.1,1-3.1,1.4
		c-1.8,0.7-3.6,1.5-5.2,2.7c-1,0.8-2.2,1.2-3.5,1.1c-2.5-0.1-3.5,0.1-5.4,2.2c-0.7,0.7-1.6,1.1-2.6,1.1c-0.4,0-0.7,0-1.1,0
		c-1.8,0-3.3,0.6-4.6,1.8c-0.7,0.6-1.3,1.2-2,1.8c-2,2-4.3,3.4-7.1,3.8c-0.4,0.1-0.9,0.2-1.3,0.4c-0.7,0.2-1.3,0.7-1.4,1.5
		c-0.4,2.1-1.4,3.8-3.1,5.1c-0.5,0.4-0.7,1-0.7,1.7c-0.1,1,0,2,0.4,2.9c0.3,0.9,0.7,1.8,1.1,2.7c1.4,2.9,2.7,5.8,3.8,8.8
		c0.3,0.7,0.6,1.3,0.9,1.9c0.7,1.2,1.7,1.8,3.1,1.8c0.6,0,1.2,0,1.9-0.1c0.9-0.1,1.8-0.2,2.7-0.2c1.4-0.1,2.8,0.1,4.2,0.7
		c0.7,0.3,1.5,0.7,2.2,1c1.4,0.7,2.9,1.3,4.5,1.6c2.5,0.5,4.7,1.6,6.7,3.1c0.8,0.6,1.6,1.1,2.4,1.7c1.5,1,3.2,1.5,5,1.6
		c1.1,0,2.1,0.1,3.2,0.1c2.4,0.1,4.5,0.8,6.4,2.3c0.1,0.1,0.1,0.1,0.2,0.2c2.2,2,4.7,3.4,7.6,4.3c1.4,0.5,2.8,1.2,4.1,2
		c1.1,0.6,2.1,1.3,3.2,2c2.6,1.7,5.5,2.9,8.5,3.8c0.8,0.2,1.5,0.5,2.3,0.7c3.4,0.9,6.9,1.8,10.3,2.6c1.8,0.5,3.6,0.8,5.5,0.8
		c1.1,0,2.1-0.2,3.2-0.5c2.1-0.6,3.6-2,4.3-4c0.3-0.9,0.6-1.9,0.8-2.8c0.2-1.2,0.4-2.4,0.6-3.7c0.3-2.4,1.2-4.4,2.8-6.2
		c0.7-0.8,1.4-1.6,2-2.5c0.5-0.6,0.9-1.3,1.3-2c0.5-1,0.5-2.1-0.1-3.1c-0.3-0.6-0.7-1.2-1.2-1.8c-0.5-0.7-1.1-1.4-1.6-2.1
		c-0.4-0.6-0.8-1.2-1.1-1.8c-0.4-0.9-0.5-1.9-0.2-2.9c0.2-0.8,0.5-1.5,0.7-2.3c0.5-1.4,0.9-2.9,1.4-4.3c0.9-3,1.1-6.1,0.4-9.2
		c-0.3-1.5-0.7-2.9-1-4.4c-1.3-4.7-2-9.6-2.5-14.4c-0.1-1.4-0.2-2.8,0.1-4.2c0.5-3.3,2.3-5.7,5.1-7.4c1.9-1.1,3.8-1.3,5.9-0.4
		c0.8,0.4,1.6,0.7,2.4,1.1c1.1,0.5,2.2,0.5,3.4,0.1c0.6-0.2,1.2-0.4,1.7-0.7c1.2-0.5,2.4-0.6,3.7-0.4c0.4,0.1,0.7,0.1,1,0.2
		c1.8,0.5,3.7,0.4,5.5,0.1c0.3-0.1,0.7-0.1,1-0.2c4.7-0.8,9,0.2,13,2.6c0.3,0.2,0.6,0.4,0.9,0.6c1.9,1.3,2.9,3.1,3.2,5.3
		c0.1,0.7,0.1,1.4,0.2,2.1c0,0.8,0.1,1.6,0,2.4c-0.1,3.3,0.5,6.4,1.9,9.3c1.7,3.8,2.6,7.7,2.9,11.8c0.1,2.2,0.2,4.4,0.4,6.6
		c0.1,2.4,0.3,4.8,0.5,7.2c0.2,1.9,0.6,3.9,0.8,5.8c0.2,1.2,0.3,2.5,0.4,3.7c0.1,0.9,0,1.8,0,2.7c-0.2,2.7-1.3,5-3.4,6.7
		c-0.9,0.7-1.8,1.4-2.7,2.2c-0.7,0.6-1.5,1.3-2.2,2c-1.1,1.1-1.4,2.5-0.8,3.9c0.3,0.8,0.6,1.5,0.9,2.2c0.6,1.5,0.7,3.1,0.2,4.7
		c-0.3,0.9-0.5,1.7-0.8,2.5c-0.7,1.8-1.2,3.7-1.5,5.7c-0.2,1-0.4,2.1-0.7,3.1c-0.4,1.6-1.1,3-2.2,4.2c-0.2,0.2-0.4,0.4-0.5,0.6
		c-1.6,1.6-2.4,3.5-2.6,5.7c-0.1,1.4-0.2,2.8-0.3,4.2c-0.1,1.4-0.2,2.8-0.4,4.2c-0.4,3-1.8,5.3-4.4,7c-0.8,0.5-1.6,1.1-2.4,1.7
		c-0.6,0.5-1.2,1-1.8,1.6c-0.8,0.9-1.2,1.9-1.2,3.2c0,0.7,0.1,1.4,0.2,2.1c0.1,1.4-0.2,2.6-1.4,3.5c-2.1,1.7-2.2,2.3-2.2,4.8
		c0,0.3,0,0.5,0,0.8c0,1.2-0.6,2.2-1.5,3c-0.2,0.2-0.4,0.4-0.6,0.5c-1.5,1.1-3,2.2-4,3.8c-0.3,0.5-0.9,0.9-1.4,1.2
		c-0.4,0.3-0.9,0.6-1.3,0.9c-0.7,0.5-1.4,1.2-1.6,2c-0.7,2.4-2.4,3.9-4.4,5.1c-0.8,0.5-1.5,1-2.2,1.5c-1.4,1-2.5,2.2-3.3,3.8
		c-0.5,1-0.9,2.1-1.4,3.2c-0.5,1.1-1,2.3-1.5,3.4c-0.6,1.2-1.3,2.3-2.2,3.3c-1.2,1.3-2.7,2.2-4.5,2.7c-2.2,0.5-4.1,0.1-5.6-1.5
		c-0.7-0.7-1.3-1.5-1.9-2.2c-0.7-0.8-1.2-1.7-1.9-2.6c-1.1-1.4-2.5-2.5-4.3-3c-2.2-0.6-2.7-1-3.3-3.3c-0.2-1-0.8-1.7-1.8-2.1
		c-0.8-0.3-1.7-0.1-2.1,0.7c-0.9,1.8-0.7,3.5,0.5,5c0.4,0.6,1,1,1.5,1.5c1.3,1,2.3,2.3,3,3.7c0.9,1.7,2,3.4,3.2,4.9
		c0.5,0.6,1,1.3,1.4,2c1.9,3.1,1.6,6.3-0.6,9.2c-0.3,0.3-0.6,0.7-0.9,1c-1,1-2,2.1-2.9,3.1c-1.1,1.2-2.3,2.2-3.7,3
		c-0.9,0.5-1.9,1-2.9,1.4c-2.6,1.1-5.3,2.1-7.9,3.2c-2.2,0.8-4.3,1.8-6.2,3c-1.1,0.7-2.1,1.3-3.2,1.9c-0.6,0.4-1.2,0.8-1.8,1.2
		c-1.1,0.8-1.8,1.9-2,3.3c-0.1,0.5-0.2,1.1-0.3,1.6c-0.7,2.7-3,4.5-5.6,4.6c-0.7,0-1.4,0-2.1,0c-0.8,0-1.6-0.1-2.4-0.1
		c-1.7-0.1-3.1,0.4-4.4,1.5c-0.3,0.2-0.6,0.4-0.8,0.7c-2,1.8-4.2,3.3-6.5,4.7c-1.2,0.7-2.4,1.6-3.6,2.3c-1,0.6-2,1.2-3,1.7
		c-0.9,0.4-1.8,0.7-2.7,1.1c-1.3,0.5-2.6,0.3-3.9-0.4c-0.2-0.1-0.5-0.3-0.7-0.4c-1.6-0.9-3.2-0.8-4.8,0c-1.1,0.6-2,1.4-2.7,2.5
		c-0.4,0.8-0.8,1.6-1.2,2.4c-0.4,0.8-0.9,1.5-1.4,2.2c-0.6,0.8-1.6,1.1-2.6,1c-0.5-0.1-1-0.2-1.6-0.3c-0.5-0.1-1-0.3-1.5-0.5
		c-1.6-0.6-3.3-0.9-5-0.9c-1.2,0-2.5,0-3.7,0c-1.9,0-3.7-0.3-5.5-0.8c-1.1-0.3-2.2-0.6-3.3-0.9c-1.2-0.3-2.5-0.3-3.7,0.2
		c-0.9,0.3-1.8,0.7-2.7,1.1c-1,0.4-1.9,0.9-2.9,1.3c-1.1,0.5-2.2,0.8-3.3,1c-2,0.4-3.9,0.2-5.7-0.5c-0.7-0.3-1.3-0.6-2-0.8
		c-0.6-0.2-1.2-0.5-1.7-0.7c-1.3-0.5-2.6-0.4-3.9,0.3c-0.5,0.3-0.9,0.5-1.4,0.7c-1.2,0.6-2.5,1-3.8,0.9c-1.1-0.1-2.1-0.1-3.2-0.3
		c-1.4-0.3-2.8-0.6-4.1-1c-2-0.5-4-0.8-6-0.9c-1.7-0.1-3.4-0.2-5-0.4c-3.1-0.4-6.2-0.3-9.3,0.1c-0.6,0.1-1.2,0.2-1.9,0.2
		c-0.8,0-1.6,0-2.4-0.2c-1.1-0.2-2-0.8-2.6-1.7c-0.2-0.4-0.5-0.7-0.7-1.1c-0.3-0.5-0.5-0.9-0.8-1.4c-0.9-1.7-2.2-2.2-4-1.9
		c-0.7,0.1-1.4,0.3-2.1,0.5c-1,0.3-2.1,0.5-3.1,0.8c-1.5,0.4-3,0.1-4.4-0.5c-0.7-0.3-1.4-0.7-2.1-1.1c-0.8-0.5-1.5-0.9-2.3-1.4
		c-1.4-0.9-2.8-1.5-4.4-1.8c-0.9-0.2-1.7-0.4-2.6-0.6c-2.9-0.5-5.3-1.8-7.4-3.9c-0.7-0.7-1.4-1.3-2.1-2c-2.3-2.3-5.1-3.5-8.3-3.7
		c-1.9-0.1-3.9-0.3-5.8-0.4c-2-0.1-3.9-0.3-5.8-0.7c-4.3-0.9-7.8-2.9-10.4-6.4c-0.8-1.1-1.6-2.1-2.3-3.2c-0.8-1.2-1.6-2.5-2.5-3.8
		c-0.7-1.1-1.5-2.2-2.2-3.3c-2.6-3.7-5.8-6.7-9.8-8.8c-1.3-0.7-2.5-1.4-3.7-2.1c-6.3-3.6-11.5-8.3-15.7-14.2c-1-1.4-2-2.9-3-4.4
		c-1.6-2.3-3.3-4.4-5.2-6.4c-0.6-0.6-1.2-1.3-1.8-2c-0.9-1.1-1.3-2.3-1.4-3.7C128.7,394.1,128.7,393,128.7,392z M294.6,431.1
		c4.5,0.2,6.6-0.9,9-3.4c0.3-0.3,0.6-0.6,1-0.9c0.4-0.4,0.8-0.7,1.2-1c1.2-0.9,2.6-1.5,4.2-1.5c0.4,0,0.9,0,1.3,0
		c0.6,0,1.2-0.3,1.7-0.7c0.2-0.3,0.5-0.5,0.7-0.8c0.7-0.9,1.5-1.5,2.6-1.8c0.6-0.2,1.2-0.5,1.6-1c0.8-1,1.9-1.6,3-2.1
		c0.6-0.3,1.3-0.7,1.8-1.1c1.4-1,3-1.5,4.7-1.9c1.2-0.2,2.4-0.5,3.6-0.8c0.8-0.2,1.7-0.6,2.5-1c1.3-0.7,1.8-1.9,1.7-3.3
		c-0.1-0.5-0.2-1-0.4-1.5c-0.4-1.2-1.1-2.2-1.9-3.2c-0.3-0.4-0.7-0.8-1.1-1.2c-1.3-1.2-2.2-2.7-2.5-4.6c-0.1-0.5-0.3-1-0.4-1.5
		c-0.3-0.9-0.7-1.6-1.4-2.2c-0.5-0.4-1-0.8-1.5-1.1c-1.1-0.8-1.6-1.8-1.8-3.1c-0.1-0.8-0.1-1.6-0.2-2.4c-0.1-1-0.5-1.9-1.3-2.6
		c-0.4-0.4-0.9-0.9-1.4-1.3c-1.6-1.4-2.6-3.1-3.2-5.1c-0.2-0.8-0.4-1.5-0.6-2.3c-0.2-1-0.4-1.9-0.5-2.9c-0.4-2.1-1.1-4.1-2.4-5.8
		c-2.4-3.3-2.8-4.2-3.5-7.7c-0.3-1.3-0.8-2.6-1.6-3.7c-1.2-1.7-2.1-3.5-2.6-5.5c-0.4-1.7-1.4-3.1-2.9-4c-0.2-0.1-0.3-0.2-0.4-0.3
		c-0.7-0.5-1.1-1.1-1.2-2c-0.2-2.9-0.5-2.7-2.4-4c-0.5-0.3-0.7-0.8-0.7-1.4c0-0.6,0-1.2-0.1-1.9c0-0.4-0.3-0.9-0.6-1.1
		c-0.3-0.3-0.7-0.6-1.1-0.8c-1.4-0.7-2.4-1.9-3-3.2c-0.3-0.6-0.6-1.1-0.9-1.6c-0.5-0.8-1.2-1.3-2.2-1.4c-0.5-0.1-1.1-0.1-1.6-0.2
		c-0.4-0.1-0.8-0.4-1-0.8c-0.3-0.7-0.5-1.3-0.7-2c-0.4-1-1.1-1.6-2.2-1.8c-0.6-0.1-1.2-0.1-1.9-0.1c-1,0-1.9,0.3-2.8,0.7
		c-1.3,0.6-2.7,1-4.1,0.9c-0.2,0-0.4,0-0.5,0c-1.2,0-2,0.6-2.6,1.6c-0.5,0.9-0.9,1.9-1.2,2.9c-1,2.9-1.9,5.7-3,8.5
		c-0.8,1.9-1,3.9-0.8,6c0.1,1.2,0.3,2.5,0.5,3.7c0.5,3.1-0.5,5.6-2.9,7.6c-0.7,0.6-1.4,1.1-2,1.7c-1,0.9-1.6,1.9-1.6,3.2
		c0,1.4-0.6,2.6-1.5,3.6c-0.7,0.8-1.3,1.7-1.7,2.7c-0.6,1.6-1.5,3-2.5,4.4c-1.2,1.7-2,3.5-2.4,5.6c-0.4,1.9-1,3.8-1.8,5.5
		c-0.9,1.9-1.4,3.8-1.4,5.9c0,0.4,0,0.9-0.1,1.3c0,0.4-0.1,0.9-0.2,1.3c-0.2,1-0.8,1.8-1.7,2.3c-0.5,0.3-1.1,0.6-1.7,0.8
		c-1.4,0.6-2.2,1.7-2.6,3.2c-0.3,1-0.5,2.1-0.7,3.1c-0.1,0.7-0.2,1.4-0.2,2.1c-0.2,2.2-0.8,4.4-1.8,6.4c-0.2,0.5-0.4,1-0.6,1.5
		c-0.4,1.3-0.2,2.5,0.6,3.5c0.2,0.3,0.5,0.5,0.7,0.8c0.9,0.9,1.9,1.3,3.1,1.1c0.8-0.1,1.6-0.3,2.4-0.4c1.2-0.2,2.3,0.1,3.3,0.8
		c1,0.7,2,1.5,3.1,2.1c1.2,0.7,2.1,1.6,2.6,2.9c0.3,1,1,1.7,1.8,2.3c0.4,0.3,0.7,0.5,1,0.8c2,1.8,2.3,4.5,0.8,6.8
		c-0.4,0.6-0.9,1.1-1.3,1.7c-0.4,0.5-0.8,1-1.1,1.5c-0.5,0.8-0.8,1.6-0.6,2.5c0.1,0.6,0.2,1.2,0.3,1.8c0.3,1.2,0.5,2.4,0.5,3.7
		c0,0.4,0,0.7,0.1,1.1c0.2,1.4,0.9,2.3,2.3,2.6c0.3,0.1,0.7,0.1,1.1,0.1c1.2,0,2.1-0.7,2.3-1.8c0.1-0.6,0.1-1.2,0.2-1.9
		c0.1-0.7,0.1-1.4,0.2-2.1c0.5-2.9,2.2-5,4.7-6.4c1.1-0.6,2.2-0.7,3.4-0.3c0.3,0.1,0.7,0.2,1,0.3c1.9,0.8,3.9,1.1,6,1.2
		c1.6,0,3.2,0.1,4.8,0.5c0.3,0.1,0.7,0.1,1.1,0.1c2.2,0.2,3.3-0.3,4-2.6c0.2-0.8,0.5-1.5,0.8-2.3c0.3-0.8,1-1.3,1.8-1.4
		C293.4,431.1,294.2,431.1,294.6,431.1z M341.9,390c-0.4,1.3,0.2,2.1,1.2,2.6c0.2,0.1,0.4,0.3,0.7,0.4c1.1,0.8,1.8,1.9,1.8,3.4
		c0,0.4,0,0.9,0,1.3c0,0.6,0.3,1,0.8,1.3c0.2,0.2,0.4,0.3,0.7,0.4c1,0.5,1.7,1.2,2.4,2.1c0.3,0.4,0.7,0.8,1.1,1.2
		c1.5,1.3,3.6,1.3,5.1,0.1c0.4-0.3,0.8-0.7,1.1-1.1c0.4-0.5,0.8-1,1.2-1.4c0.5-0.5,1.1-0.9,1.8-1c0.9,0,1.7-0.3,2.4-1
		c0.7-0.8,1.6-1.1,2.6-1.1c0.3,0,0.5,0,0.8,0c1,0,1.9-0.4,2.7-1c0.7-0.5,1.4-1.1,2.3-1.4c1-0.3,1.7-0.9,2.2-1.8
		c0.5-1,1.3-1.7,2.4-1.9c1.1-0.2,1.9-0.9,2.6-1.7c0.5-0.6,1-1.2,1.6-1.8c1.2-1.2,2.7-1.7,4.4-1.6c0.7,0,1.4,0.3,1.9,0.9
		c0.5,0.5,0.9,1.1,1.3,1.7c0.8,0.9,1.8,1.5,2.9,1.7c1.1,0.2,2.1-0.4,2.5-1.5c0.2-0.8,0.3-1.6,0.1-2.4c-0.2-0.7-0.4-1.3-0.7-2
		c-0.3-0.6-0.7-1-0.9-1.6c-0.3-0.6-0.5-1.1-0.6-1.7c-0.2-0.9,0.2-1.6,1.1-1.7c0.9-0.2,1.5-0.5,1.9-1.2c0.4-0.6,0.8-1.2,1.4-1.6
		c1.2-0.6,1.8-1.6,2-2.9c0-0.3,0.1-0.5,0.3-0.7c0.2-0.4,0.5-0.7,0.8-1c0.3-0.2,0.6-0.4,0.9-0.5c2.6-1.2,4.5-3.1,6.2-5.3
		c0.8-1.1,1.7-2.3,2.5-3.5c1.5-2.1,3.1-4.1,4.9-5.9c0.6-0.6,1.3-1.2,1.8-2c0.6-0.8,1.1-1.6,1.5-2.5c0.8-1.8,0.5-3.1-0.9-4.3
		c-0.6-0.5-1.3-0.9-2-1.3c-0.7-0.4-1.4-0.7-2.2-1c-1.1-0.4-2.1-0.9-3.2-1.3c-2.1-0.9-3.9-2.1-5.5-3.7c-0.6-0.6-1.1-1.1-1.7-1.7
		c-1.3-1.1-2.8-1.9-4.4-2.4c-1.2-0.3-2.4-0.5-3.7-0.5c-1.1,0-2.1,0-3.2,0c-2.6,0.1-4.9-0.5-7.2-1.7c-0.9-0.5-1.9-1-2.8-1.5
		c-2-1.1-4.1-1.7-6.3-1.9c-0.4,0-0.7-0.1-1.1-0.1c-1.9-0.1-3.7-0.7-5.3-1.7c-1.1-0.7-2.3-1.4-3.4-2.2c-2.7-1.8-5.5-3.2-8.7-4
		c-2.3-0.6-4.5-1.5-6.6-2.8c-1.8-1.1-3.8-1.9-5.9-2.4c-1.1-0.3-2.2-0.6-3.3-1c-2.2-0.8-4.1-2.1-5.5-4c-0.4-0.6-0.9-1.1-1.4-1.6
		c-0.6-0.6-1.1-1.1-1.8-1.6c-2-1.3-3.3-1.3-5.1,0.2c-1.4,1.2-2.8,2.4-4.2,3.7c-1.1,1-2.3,2-3.6,2.7c-0.8,0.5-1.5,0.9-2.2,1.5
		c-1.2,0.9-1.9,2.1-1.9,3.6c0,1.2,0,2.3,0,3.5c0,1.5-0.1,3-0.5,4.5c-0.2,0.6-0.3,1.2-0.5,1.8c-0.1,0.6-0.2,1.2-0.2,1.8
		c-0.1,2.2,0.8,4,2.8,5.1c0.6,0.4,1.2,0.7,1.9,1c1.5,0.8,2.5,1.9,2.8,3.6c0.2,1.3,0.9,2.3,1.8,3.2c1.4,1.4,2.4,3,3.3,4.8
		c0.3,0.7,0.7,1.4,1,2.2c1.1,2.6,2.6,5.1,4.5,7.2c1.5,1.7,2.6,3.6,3.4,5.7c0.8,2.2,1.7,4.3,2.6,6.4c1,2.5,1.8,5,1.8,7.7
		c0,1.7,0.7,3.1,1.8,4.3c0.6,0.7,1.2,1.3,1.8,2C341.7,387.4,342.3,388.6,341.9,390z M181,343.2c-1.3,0-2.2,0-3,0
		c-1.4,0.1-2.6,0.7-3.3,2c-0.5,0.9-0.9,1.8-1.2,2.7c-0.4,1-0.7,2-1.1,3c-0.5,1.3-1.4,2.2-2.7,2.9c-0.7,0.4-1.4,0.7-2.1,1.1
		c-0.9,0.5-1.5,1.3-1.8,2.2c-0.6,1.6-0.5,3.1,0.1,4.7c0.5,1.2,1.4,2.1,2.7,2.4c0.6,0.1,1.2,0.2,1.8,0.3c0.5,0.1,1.1,0.1,1.6,0.3
		c0.7,0.2,1.2,0.7,1.4,1.5c0.1,0.8,0.2,1.6,0.3,2.4c0.1,0.8,0.6,1.3,1.3,1.6c0.4,0.2,0.8,0.3,1.3,0.4c1.6,0.4,2.7,1.4,3.4,2.7
		c0.3,0.6,0.7,1.2,1,1.9c0.8,1.7,2.1,2.8,3.9,3.5c0.5,0.2,1,0.4,1.5,0.6c0.4,0.2,0.8,0.4,1.2,0.6c1.1,0.6,2,1.5,2.5,2.7
		c0.2,0.6,0.5,1.1,0.7,1.7c0.6,1.6,1.7,2.7,3.1,3.6c0.8,0.5,1.7,0.9,2.6,1.4c3.1,1.4,5.9,3.2,8.8,4.9c1.4,0.8,2.5,1.9,3.5,3.2
		c0.5,0.7,1,1.5,1.6,2.1c0.7,0.9,1.5,1.7,2.4,2.5c0.8,0.7,1.7,1.3,2.7,1.7c3.5,1.3,7.4-0.6,8-4.3c0.1-0.6,0.2-1.2,0.3-1.8
		c0.2-1.6,1.1-2.8,2.6-3.4c0.7-0.3,1.3-0.6,2-0.8c2.2-0.8,3.8-2.3,4.9-4.3c0.7-1.3,1.3-2.5,1.9-3.8c1-2.2,2.2-4.3,3.6-6.2
		c1-1.4,1.8-2.8,2.3-4.5c0.6-2,1.4-3.8,2.7-5.4c1.3-1.5,1.7-3.3,1.5-5.2c0-0.4-0.1-0.9-0.1-1.3c0-0.4,0-0.9,0-1.3
		c0.1-1,0.4-1.9,1.1-2.6c0.4-0.4,0.8-0.7,1.1-1.1c0.7-0.7,1.2-1.5,1.6-2.5c0.2-0.6,0.4-1.2,0.6-1.8c1.1-4.6,2.8-9,4.5-13.4
		c1-2.6,2.1-5.1,3.4-7.5c1.2-2.2,2.2-4.5,2.6-6.9c0.3-1.7,1.2-3.1,2.4-4.4c0.4-0.4,0.9-0.9,1.3-1.3c0.2-0.3,0.4-0.6,0.6-0.9
		c0.3-0.5,0.2-1.1-0.3-1.4c-0.5-0.3-1.1-0.6-1.7-0.8c-0.9-0.3-1.9-0.6-2.8-0.8c-1.7-0.5-3.1-1.4-4.2-2.7c-0.4-0.5-0.8-1-1.3-1.4
		c-2-1.8-4.3-2.4-6.9-1.6c-1.7,0.6-3.2,1.5-4.5,2.8c-0.8,0.8-1.4,1.6-2.1,2.4c-0.8,0.9-1.4,1.8-2.3,2.6c-2.4,2.1-4.8,4.2-7.3,6.2
		c-0.7,0.6-1.6,1.1-2.5,1.6c-1.2,0.7-2.5,0.8-3.8,0.1c-0.5-0.2-1-0.5-1.4-0.7c-0.9-0.4-1.9-0.6-2.8,0c-1.1,0.6-2.2,0.7-3.4,0.5
		c-0.3,0-0.5-0.1-0.8-0.1c-1.8-0.2-3.1,0.6-4,2.1c-0.3,0.5-0.5,0.9-0.8,1.4c-0.4,0.6-1,1.1-1.7,1.2c-0.7,0.2-1.4,0.2-2.1,0.4
		c-1.2,0.2-2.2,0.7-2.9,1.7c-0.2,0.2-0.3,0.4-0.5,0.6c-0.8,1.1-1.9,1.8-3.2,2.2c-0.5,0.2-1,0.3-1.5,0.5c-2.9,0.8-5.5,2-8,3.5
		c-1.1,0.7-2.3,1.4-3.4,2.1C185.7,342.6,183.3,343.4,181,343.2z M288.8,292.1c1.4,0,3-0.3,4.5-1.1c2.3-1.2,3-3.1,2.4-5.6
		c-0.1-0.3-0.2-0.7-0.4-1c-1-2.3-2.7-3.9-5.2-4.6c-2-0.6-4-0.7-6.1-0.6c-0.6,0.1-1.2,0.2-1.8,0.4c-1,0.3-1.6,1-2.1,2
		c-0.3,0.7-0.5,1.3-0.5,2c-0.1,2,0.5,3.7,1.7,5.1C283.3,291,285.6,292.1,288.8,292.1z"/>
	<path class="st0" d="M309.3,142.3c-3.2,0-6,0.3-8.8,0.7c-2.5,0.3-4.9,0.7-7.4,1.1c-3,0.4-6,0.5-9,0.1c-2.1-0.3-4.2-0.4-6.4,0.1
		c-0.4,0.1-0.9,0.1-1.3,0.2c-2.2,0.3-4.2,0-6.2-1.1c-0.8-0.4-1.6-0.8-2.4-1.2c-1.4-0.6-2.8-0.5-4.1,0.2c-0.8,0.5-1.7,1-2.4,1.6
		c-1,0.7-2,1.5-3,2.3c-1.4,1-2.9,1.7-4.6,2.1c-1.4,0.3-2.8,0.4-4.2,0.1c-1.3-0.3-2.6-0.7-3.9-0.9c-0.8-0.2-1.6-0.3-2.4-0.3
		c-1.1,0-1.9,0.5-2.5,1.3c-0.6,0.9-0.9,1.9-1.1,3c-0.3,2.3-0.1,4.6,0.9,6.8c0.6,1.1,1.2,2.2,1.9,3.2c1.4,2.1,2.6,4.2,3.8,6.4
		c1,1.9,2,3.7,3.1,5.6c0.5,0.9,1,1.7,1.3,2.6c0.3,0.8-0.1,1.6-0.9,2c-1.1,0.4-2.3,0.5-3.4,0.3c-0.9-0.1-1.7-0.3-2.6-0.6
		c-3-0.8-3-1-6.5,0.1c-0.6,0.2-1.2,0.4-1.8,0.5c-2,0.4-3.9,0-5.6-1.1c-0.9-0.6-1.6-1.4-2.1-2.4c-0.3-0.7-0.6-1.5-0.9-2.2
		c-0.3-0.8-0.5-1.7-0.7-2.6c-0.4-1.2-0.9-2.3-1.6-3.3c-1.2-1.6-2.4-3.3-3.5-5.1c-0.2-0.4-0.5-0.7-0.8-1.1c-0.6-0.7-1.5-0.9-2.4-0.6
		c-0.5,0.2-1,0.4-1.4,0.7c-0.7,0.4-1.3,0.9-1.9,1.4c-1.5,1.2-3.2,2.3-4.9,3.2c-3.3,1.6-6.2,3.7-9,6.2c-2.1,1.9-4.5,3.5-7,4.9
		c-0.8,0.4-1.6,0.8-2.4,1.1c-1.4,0.6-2.8,0.7-4.2,0.2c-0.9-0.3-1.9-0.5-2.8-0.9c-1.5-0.5-3-0.5-4.4,0.2c-0.5,0.2-1,0.4-1.5,0.6
		c-2.5,1.1-5.1,1.5-7.8,1.2c-1.7-0.2-3.4-0.4-5-0.6c-2.8-0.4-5.5-0.2-8.1,0.7c-1.3,0.5-2.7,0.8-4.1,1.2c-2.8,0.8-5.6,0.6-8.4-0.4
		c-0.8-0.3-1.5-0.6-2.2-0.9c-1.5-0.6-3.1-0.8-4.7-0.5c-1,0.2-1.9,0.4-2.9,0.5c-2,0.3-3.9,0-5.6-1.1c-0.6-0.4-1.2-0.8-1.7-1.3
		c-0.9-0.8-1.3-1.9-1.3-3.1c0-0.9,0.1-1.8,0.4-2.6c0.5-1.2,0.9-2.3,1.5-3.4c1.3-2.2,2.6-4.4,4.1-6.6c1.7-2.6,3.9-4.6,6.6-6
		c1-0.5,2-1.1,3-1.7c2-1.2,3.4-2.8,4.4-4.9c0.4-1,0.9-1.9,1.4-2.9c0.9-1.9,2.4-3.3,4.4-4.1c0.8-0.3,1.7-0.6,2.5-1
		c0.7-0.3,1.5-0.6,2.2-0.9c1.3-0.6,2.4-1.5,3.2-2.7c0.5-0.7,1-1.5,1.4-2.2c1.3-2.3,3.2-4,5.4-5.4c1.1-0.7,2.3-1.3,3.5-1.9
		c2.9-1.4,5.6-3.1,8.2-4.9c2.8-2,5.8-3.8,9.1-5c2.6-1,4.7-2.5,6.3-4.7c0.7-0.8,1.4-1.6,2.1-2.4c1.5-1.7,3.4-2.5,5.7-2.5
		c1.7,0.1,3.4,0.2,5.1,0.3c1.9,0.1,3.7,0.2,5.6,0.3c2.4,0,4.8-0.5,7-1.5c1.2-0.6,2.4-1.2,3.6-1.8c1.3-0.7,2.7-1.4,4-2
		c2.7-1.2,5.5-2,8.4-2.4c4.9-0.6,9.1,0.8,12.5,4.5c0.7,0.8,1.4,1.6,2,2.5c0.6,0.8,1.2,1.6,1.8,2.3c0.5,0.5,1,1,1.6,1.4
		c1,0.7,2.1,0.9,3.3,0.6c1-0.2,1.8-0.6,2.7-1.1c1.5-0.9,2.7-2,3.7-3.4c1-1.3,1.8-2.7,2.5-4.1c0.6-1.1,1.1-2.2,1.6-3.4
		c2.9-5.8,7.7-8.9,14-9.8c3.5-0.5,6.9,0,10.1,1.4c1.3,0.6,2.6,1.2,3.9,1.8c1.2,0.6,2.4,1,3.7,1.4c1.5,0.4,3,0.3,4.4-0.3
		c0.6-0.2,1.1-0.5,1.7-0.7c0.6-0.3,1.3-0.6,1.9-0.9c1.8-0.8,3.5-0.5,5,0.6c0.9,0.7,1.8,1.5,2.7,2.2c0.9,0.7,1.7,1.6,2.6,2.3
		c2.2,1.7,3.5,1.7,5.8,0.3c0.8-0.5,1.6-1,2.5-1.5c1.3-0.8,2.7-0.8,4.1-0.1c0.6,0.3,1.3,0.6,1.9,1c2.4,1.5,5.1,2.1,7.8,2.3
		c1.6,0.1,3.2,0.3,4.8,0.4c2.2,0.2,4.3,0.9,6.3,1.9c1.3,0.7,2.6,1.5,3.9,2.3c3.6,2.3,7.4,4.2,11.4,5.8c1.6,0.6,3.1,1.2,4.7,1.9
		c1.2,0.5,2.5,1,3.7,1.6c2.3,1.1,4.3,2.5,6.1,4.2c0.8,0.8,1.7,1.6,2.5,2.4c1.7,1.7,3.6,3.1,5.8,4.2c1.1,0.6,2.2,1.1,3.3,1.7
		c0.7,0.4,1.4,0.8,2.1,1.2c0.4,0.2,0.7,0.6,1,0.9c0.5,0.6,0.6,1.3,0.3,2c-0.5,1.2-1.5,1.9-2.8,2.2c-0.4,0.1-0.9,0.1-1.3,0.1
		c-0.6,0-1.2-0.1-1.9-0.1c-1.2,0-2.3,0.4-3,1.4c-1.5,2.2-3.3,4.2-5.2,6.1c-0.1,0.1-0.1,0.1-0.2,0.2c-1.7,2.2-1.1,4.9,1.3,6.4
		c0.7,0.4,1.5,0.5,2.3,0.2c0.9-0.3,1.6-0.8,2.3-1.4c0.8-0.8,1.7-1.6,2.5-2.4c1.1-1.1,2.2-2.3,3.4-3.4c1.4-1.4,2.9-2.6,4.5-3.7
		c1.3-0.9,2.7-1.7,4.3-2.2c0.8-0.2,1.5-0.4,2.3-0.5c1.1-0.1,2.1,0.2,3,0.9c0.6,0.4,1.1,0.9,1.6,1.4c0.5,0.6,1,1.2,1.5,1.8
		c1.9,2.3,3.7,4.5,5.6,6.8c1.5,1.9,3,3.7,4.6,5.5c0.9,1.1,1.9,2.2,2.8,3.2c1.6,1.7,3.5,3,5.7,3.8c0.5,0.2,1,0.4,1.5,0.6
		c2.4,0.9,4.4,2.3,6.1,4.2c0.6,0.7,1.3,1.5,1.8,2.3c1.6,2.3,2.9,4.7,4.1,7.1c0.3,0.7,0.6,1.5,0.9,2.2c0.2,0.5,0.3,1,0.3,1.6
		c0.1,1.4-0.5,2.5-1.9,2.7c-1.4,0.3-2.8,0.4-4.2,0.5c-1.6,0.1-3.2,0.1-4.8,0.1c-1.5,0-3,0.2-4.5,0.5c-5.8,1.3-10,4.5-12.4,9.9
		c-0.5,1-0.8,2.1-1.3,3.2c-0.4,0.9-0.7,1.8-1.1,2.7c-0.3,0.6-0.6,1.1-1,1.6c-0.5,0.7-1.3,1-2.1,0.8c-0.5-0.1-1-0.2-1.5-0.5
		c-0.8-0.5-1.7-1-2.5-1.6c-1.1-0.9-2.2-1.8-3.3-2.7c-4.9-4.1-10.4-7.5-16-10.5c-1.3-0.7-2.7-1.3-4.1-1.9c-2.7-1.1-4.9-2.8-6.6-5.1
		c-0.7-1-1.5-2-2.3-2.9c-1.4-1.7-3.3-2.7-5.4-3.1c-1-0.2-2.1-0.4-3.1-0.6c-2.1-0.4-3.8-1.4-5.2-3c-0.9-1-1.7-2.1-2.5-3.1
		c-0.9-1.1-1.8-2.2-2.7-3.3c-0.8-0.9-1.8-1.8-2.8-2.4c-2.2-1.4-4.5-1.5-6.8-0.2c-2.3,1.3-3.8,3.1-4.6,5.6c-0.3,0.8-0.4,1.7-0.6,2.6
		c-0.2,1-0.3,2.1-0.5,3.2c-0.3,2.1-1,4.1-2.2,5.9c-1.6,2.5-3.5,4.7-5.7,6.7c-0.4,0.4-0.8,0.7-1.3,1c-0.8,0.5-1.6,0.7-2.5,0.6
		c-0.8-0.1-1.6-0.3-2.3-0.5c-1.7-0.5-3.5-0.8-5.3-0.6c-0.6,0.1-1.2,0-1.9,0c-1.2-0.1-2-0.7-2.6-1.6c-0.4-0.7-0.7-1.4-0.8-2.2
		c-0.5-3.1-0.1-6,1.6-8.7c0.4-0.7,0.9-1.3,1.4-2c0.4-0.5,0.7-1,1.1-1.5c1.2-1.6,1.6-3.4,1-5.3c-0.3-1-0.5-2.1-0.8-3.1
		c-0.6-2.1-0.7-4.2-0.1-6.3c0.2-0.7,0.3-1.4,0.4-2.1c0.3-1.9-0.4-3.1-2.1-3.8c-0.8-0.3-1.7-0.6-2.5-0.7
		C312.9,142.4,310.9,142.3,309.3,142.3z"/>
	<path class="st0" d="M433.5,241.5c-1.4-0.1-2.8,0-4.3-0.2c-1.1-0.1-2.3-0.3-3.4-0.6c-1.9-0.5-3.1-1.6-3.7-3.5
		c-0.4-1.4-0.8-2.9-1.1-4.4c-0.2-1,0.4-1.9,1.3-2.4c0.9-0.4,1.8-0.7,2.8-0.8c1-0.1,1.9-0.2,2.9-0.4c0.4-0.1,0.9-0.2,1.3-0.3
		c0.7-0.3,1.2-0.7,1.6-1.3c1.4-2.4,0.7-6.2-2.7-7.1c-0.7-0.2-1.4-0.3-2.1-0.4c-1.5-0.2-3-0.3-4.5-0.4c-1.8-0.2-3.6-0.2-5.3,0.3
		c-0.7,0.2-1.4,0.4-2,0.8c-2.8,1.5-3.4,4.8-1.2,7.2c0.5,0.5,1,1,1.5,1.5c1.6,1.5,2.1,3.5,1.7,5.6c-0.3,1.4-0.9,2.5-2.1,3.3
		c-0.6,0.4-1.2,0.8-1.8,1c-2.7,1.1-5.5,1.6-8.3,0.9c-0.3-0.1-0.5-0.1-0.8-0.2c-1.7-0.5-3.3-0.5-5-0.2c-0.6,0.1-1.2,0.1-1.8,0.1
		c-0.7,0-1.4-0.6-1.4-1.3c-0.1-0.6-0.1-1.2,0-1.8c0.2-1.9,0.9-3.6,2-5.2c0.6-0.9,1.2-1.7,1.9-2.6c2.2-2.6,4.1-5.4,5.7-8.3
		c1.2-2.1,2.3-4.2,3.5-6.3c2.5-4.7,5.1-9.4,7.9-13.9c2.3-3.7,4.5-7.5,6.5-11.3c0.2-0.5,0.5-0.9,0.8-1.4c1.2-2,2.9-3.3,5.2-4
		c0.9-0.3,1.9-0.4,2.9-0.5c0.6-0.1,1.2-0.1,1.9-0.1c3.8,0.1,7.6-0.3,11.4-0.7c1.7-0.2,3.4-0.3,5-0.3c3.6-0.1,7.1-0.4,10.6-1
		c1.9-0.4,3.8-0.7,5.8-0.6c1.6,0.1,3.2,0.3,4.7,0.8c2.4,0.8,4.1,2.4,5.3,4.6c0.6,1.2,1.1,2.4,1.3,3.8c0.4,1.8,0.7,3.7,0.9,5.5
		c0.3,2.2,0.4,4.4,0.5,6.6c0,1.1,0,2.1-0.2,3.2c-0.6,3.6-4.6,4.8-6.9,3.9c-0.8-0.3-1.5-0.7-2.1-1.2c-0.8-0.7-1.5-1.5-2.1-2.4
		c-1-1.5-1.4-3.1-1-4.8c0.2-1,0.5-2.1,0.7-3.1c0.2-1.2,0.2-2.5-0.1-3.7c-0.6-2-1.7-3-3.7-3.3c-0.4,0-0.7-0.1-1.1-0.1
		c-2.4,0-4.8,0-7.2,0.2c-3.4,0.2-6.3,1.6-8.9,3.8c-0.3,0.3-0.6,0.6-0.9,0.9c-1.2,1.3-1.8,2.8-1.8,4.6c0.1,2,0.4,4.1,0.9,6
		c0.1,0.3,0.2,0.7,0.4,1c0.4,0.7,1.1,1.2,1.9,1.2c1.4,0.1,2.6-0.4,3.6-1.4c0.5-0.5,0.9-1.1,1-1.8c0.2-0.8,0.3-1.6,0.5-2.3
		c0.2-1,0.6-1.9,1.2-2.6c0.9-1.1,2.1-1.6,3.6-1.2c0.4,0.1,0.8,0.3,1.2,0.5c0.8,0.4,1.3,1.1,1.6,2c0.2,0.8,0.2,1.6,0.1,2.4
		c-0.1,0.9-0.2,1.8-0.3,2.6c-0.2,1.9-0.1,3.7,0.4,5.5c0.3,1,0.6,2.1,0.8,3.1c0.1,0.6,0.3,1.2,0.3,1.8c0.1,1.4-0.5,2.6-1.6,3.5
		c-1.1,0.9-2.5,1-3.7,0.2c-0.6-0.4-1.1-0.9-1.5-1.5c-0.3-0.5-0.7-1.1-1-1.6c-0.7-1.2-1.8-1.7-3.1-1.7c-1.1,0-2.1,0.2-3.1,0.8
		c-1.1,0.6-1.7,1.6-1.8,2.8c0,0.6,0,1.2,0.1,1.9c0.3,1.8,0.6,3.5,0.9,5.2c0.2,1.2,0.7,2.4,1.4,3.4c1,1.4,2.3,2.2,4,2.4
		c0.7,0.1,1.4,0.2,2.1,0.1c2.1-0.2,4.2-0.5,6.3-0.8c0.6-0.1,1.2-0.3,1.8-0.5c1.7-0.5,3-1.5,4-3c0.8-1.2,1.4-2.5,1.8-3.8
		c0.4-1.4,0.5-2.8,0.2-4.2c-0.2-0.7-0.3-1.4-0.4-2.1c-0.1-0.7,0.2-1.4,0.8-1.9c1.6-1.3,3.4-1.8,5.4-1c0.8,0.3,1.3,0.9,1.6,1.7
		c0.1,0.4,0.2,0.9,0.3,1.3c0.2,1.3,0.6,2.4,1.4,3.4c0.9,1,1,2.2,0.8,3.5c-0.2,0.9-0.4,1.7-0.6,2.6c-0.5,1.7-0.6,3.5-0.2,5.3
		c0.2,1,0.4,2.1,0.6,3.1c0.1,0.9,0.2,1.8,0.2,2.6c0,1.3-1,2.3-2.3,2.6c-1.1,0.2-2.1,0.1-3.1-0.4c-0.7-0.4-1.4-0.8-2-1.3
		c-1.4-1-2.9-1.2-4.6-1.1c-0.7,0.1-1.4,0.2-2.1,0.4c-1,0.2-2.1,0.5-3.1,0.8c-2.1,0.6-4.2,0.6-6.3,0.3c-0.8-0.1-1.6-0.2-2.4-0.3
		c-2-0.2-4.1-0.2-6.1,0.3c-0.5,0.1-1,0.2-1.6,0.3C440.4,241.2,437,241.5,433.5,241.5z M432.9,206C432.9,206,432.9,206,432.9,206
		c-0.1-0.9-0.1-1.8-0.2-2.6c0-0.5-0.1-1.1-0.2-1.6c-0.4-1.4-1.2-2.5-2.6-3.2c-0.8-0.4-1.6-0.3-2.3,0.1c-0.9,0.5-1.5,1.2-1.9,2.1
		c-0.8,2-1.6,3.9-2.3,5.9c-0.1,0.2-0.1,0.3-0.2,0.5c-0.3,1.3-0.1,2.5,0.6,3.6c0.4,0.7,1.1,1.2,1.9,1.3c0.4,0.1,0.9,0.1,1.3,0.1
		c1.6-0.1,3.1-0.7,4.5-1.5c0.9-0.5,1.4-1.3,1.4-2.4C433,207.6,432.9,206.8,432.9,206z"/>
	<path class="st0" d="M216.2,180.9c1.6-0.1,3.2-0.2,4.8-0.2c3-0.1,6,0.3,9,1c1.1,0.3,2.2,0.5,3.4,0.8c2.9,0.7,5.8,1,8.7,1.2
		c0.7,0.1,1.4,0,2.1,0c1.7-0.1,3.3-0.4,4.9-1.2c0.6-0.3,1.3-0.6,1.9-0.9c1.3-0.6,2.7-0.7,4.2-0.4c2.1,0.3,3.3,1.6,3.7,3.7
		c0.1,0.8,0.2,1.6,0.2,2.4c0,1.6,0,3.2-0.1,4.8c-0.1,3.1-0.1,6.2,0.5,9.3c0.2,1,0.2,2.1,0.3,3.2c0.1,0.8,0,1.6-0.3,2.4
		c-0.3,0.7-0.8,1.2-1.5,1.4c-0.7,0.1-1.4,0.3-2.1,0.2c-2-0.1-4.1-0.3-6.1-0.5c-1.3-0.1-2.3-0.8-3-1.9c-0.5-0.8-1-1.7-1.4-2.6
		c-1.5-3.7-1.9-4.7-5.3-7.9c-0.5-0.5-0.9-1.1-1.4-1.6c-0.4-0.4-0.7-0.8-1.1-1.2c-0.8-0.8-1.8-1.1-2.9-0.8c-2.2,0.6-4,1.8-5.4,3.6
		c-1.1,1.4-1.2,2.9-0.6,4.5c0.3,0.7,1.2,1.2,1.9,1.1c0.8-0.2,1.5-0.4,2.3-0.7c0.7-0.2,1.3-0.5,2-0.7c2.7-0.8,5.3,0.6,6.5,2.9
		c0.6,1.2,0.8,2.5,0.7,3.9c0,0.9-0.1,1.8-0.3,2.6c-0.3,1.8-0.4,3.5-0.3,5.3c0,1.1,0,2.1-0.1,3.2c-0.1,1.4-0.8,2.5-1.7,3.5
		c-2.2,2.3-4.9,0.9-5.6-1.1c-0.2-0.4-0.2-0.9-0.4-1.3c-0.1-0.5-0.2-1-0.4-1.5c-0.3-0.8-0.9-1.3-1.8-1.4c-1.8-0.2-3.2,0.7-3.5,2.5
		c-0.3,1.7-0.5,3.3-0.3,5c0.1,1.6,0.9,2.9,2.3,3.7c1.6,1,3.4,1.5,5.3,1.2c0.4-0.1,0.9-0.1,1.3-0.2c2-0.4,4-0.7,6.1-0.7
		c0.8,0,1.6-0.2,2.4-0.4c1-0.2,1.5-0.9,1.6-1.9c0.1-0.5,0.1-1.1,0.1-1.6c0-0.5,0-1.1,0.1-1.6c0.1-1.6,0.9-2.8,2.3-3.6
		c1.1-0.6,2.3-1,3.6-0.9c1.1,0,2.1,0.5,2.8,1.3c0.7,0.7,1.2,1.6,1.3,2.6c0.1,0.8,0.2,1.6,0.2,2.4c0,0.6-0.1,1.2-0.2,1.8
		c-0.8,3.3-1,6.7-0.5,10c0.1,0.8,0.1,1.6,0,2.4c-0.1,1.2-0.8,2.1-1.9,2.7c-0.8,0.4-1.6,0.7-2.5,0.7c-1,0-2,0-2.9-0.2
		c-3.6-0.5-7.2-0.5-10.9,0.1c-2.5,0.4-5.1,0.7-7.7,0.9c-2.5,0.1-5,0-7.4-0.4c-0.5-0.1-1.1-0.2-1.6-0.3c-3.7-0.7-7.4-0.7-11.1-0.4
		c-1.6,0.1-3.2,0.1-4.8-0.2c-2-0.3-3.5-1.3-4.5-3c-1-1.8-1.7-3.7-2-5.8c-0.2-1.6,0.1-3.2,0.9-4.6c0.7-1.3,1.9-2.1,3.4-2.1
		c1,0,2,0,2.9,0c1.6-0.1,2.6-0.9,3.1-2.4c0.3-1.1,0.4-2.3,0-3.4c-0.2-0.7-0.5-1.3-0.8-2c-0.7-1.7-1.2-3.5-1.3-5.4
		c-0.1-1.7-0.1-3.4-0.1-5.1c0.1-1.8,0.2-3.5,0.4-5.3c0.1-1.5,0.1-3-0.1-4.5c-0.4-2.7-1.7-4.8-3.9-6.4c-0.6-0.4-1.2-0.8-1.8-1.2
		c-0.7-0.5-1.3-1.2-1.7-2c-0.4-0.8-0.4-1.5-0.1-2.3c0.5-1.3,1.5-2.2,2.7-2.8c1-0.5,2-0.8,3.1-0.9c1.6-0.1,3.2-0.3,4.8-0.4
		C212.4,181.2,214.3,181.1,216.2,180.9C216.2,181,216.2,180.9,216.2,180.9z"/>
	<path class="st0" d="M533.1,181.3c2.7,0.1,5.3,0.2,8,0.3c2.2,0.1,4.4,0.5,6.5,1.1c0.7,0.2,1.4,0.4,2,0.7c1.8,0.8,2.5,2,2.3,4.1
		c-0.4,3-1.8,5.3-4.4,6.9c-1.5,0.9-3.1,1.4-4.8,1.6c-1,0.1-1.9,0.3-2.9,0.4c-1.4,0.2-2.8,0.6-3.9,1.5c-1.1,0.8-2.3,1.3-3.6,1.7
		c-0.3,0.1-0.7,0.2-1,0.3c-1.5,0.5-2.4,1.5-2.7,3c-0.3,1.3-0.3,2.6,0.2,3.9c0.4,1.1,0.9,2.1,1.5,3.1c2.6,3.9,5.1,7.9,7.7,11.8
		c0.4,0.6,0.8,1.1,1.3,1.7c0.9,1,2,1.5,3.3,1.4c1.2-0.1,2.3-0.2,3.4-0.3c0.7,0,1.4-0.1,2.1-0.1c1.3,0.1,2.3,0.8,3,1.9
		c0.5,0.9,0.9,1.8,1,2.7c0.2,1.7,0.4,3.3,0.6,5c0.1,1.3-0.2,2.5-0.7,3.6c-0.7,1.5-1.9,2.3-3.5,2.5c-0.6,0.1-1.2,0.1-1.9,0.1
		c-2.1-0.1-4.2,0.3-6.3,0.7c-0.7,0.1-1.4,0.3-2.1,0.4c-1.9,0.3-3.7,0.2-5.5-0.3c-0.5-0.1-1-0.2-1.5-0.4c-1.6-0.5-3.3-0.6-5-0.5
		c-1,0-2,0.1-2.9,0.1c-1.4,0-2.4-0.7-2.9-2c-0.8-2.1-1.1-4.3-1-6.5c0-0.3,0.1-0.7,0.2-1c0.2-0.7,0.6-1.3,1.3-1.6
		c0.6-0.3,1.3-0.5,2-0.8c1.5-0.5,2.3-1.6,2.7-3.1c0.2-0.8,0.3-1.6,0.3-2.4c-0.2-2-1.1-3.5-3-4.4c-0.8-0.4-1.6-0.7-2.5-0.9
		c-1.6-0.5-3-1.2-4.1-2.4c-0.1-0.1-0.3-0.2-0.4-0.4c-0.9-0.8-2-1.1-3.2-0.8c-3.8,1-6.5,3.2-8,6.8c-0.4,1.1-0.6,2.2-0.7,3.4
		c0,1.6,0.3,3.2,0.8,4.7c0.4,1.3,1.2,2.4,2.4,3.1c0.5,0.3,1.1,0.6,1.6,1c1.1,0.7,1.7,1.8,1.9,3.1c0.1,1,0.1,1.9-0.1,2.9
		c-0.5,2-2.1,3.4-4.1,3.6c-0.9,0.1-1.8,0-2.6-0.2c-0.8-0.2-1.5-0.4-2.3-0.6c-1.7-0.5-3.5-0.5-5.3-0.1c-0.9,0.2-1.7,0.4-2.6,0.6
		c-1.6,0.4-3.2,0.4-4.8,0.3c-0.8-0.1-1.6-0.3-2.3-0.5c-1.9-0.6-3.2-1.9-3.8-3.8c-0.7-2.1-0.8-4.2-0.1-6.3c0.6-1.7,1.6-3,3.1-3.9
		c0.7-0.5,1.6-0.8,2.4-1.2c0.8-0.4,1.6-0.7,2.4-1.1c1.3-0.6,2.1-1.7,2.4-3c0.2-0.8,0.3-1.6,0.4-2.4c0.2-1.8,0.4-3.5,0.6-5.3
		c0.1-1.3,0-2.7-0.3-4c-0.2-0.6-0.4-1.2-0.5-1.8c-0.7-2.8-1.2-5.6-0.8-8.4c0.4-3.2-0.8-5.7-3.1-7.8c-0.7-0.6-1.4-1.1-2.1-1.7
		c-0.5-0.4-1-0.7-1.5-1.1c-1.4-1.1-1.9-2.5-1.7-4.2c0.2-1.4,0.6-2.6,1.5-3.6c0.9-1.1,2.1-1.6,3.5-1.4c1,0.2,1.9,0.4,2.8,0.7
		c2.3,0.7,4.7,1.1,7.1,1.1c1.2,0,2.5,0,3.7,0.1c1.2,0,2.3,0.3,3.4,0.6c0.7,0.2,1.3,0.5,2,0.8c3.6,2,4.4,6.3,1.8,9.5
		c-0.6,0.8-1.3,1.4-2.1,2.1c-1.4,1.3-2,2.9-2.2,4.7c-0.1,1.2,0.1,2.3,0.5,3.4c0.5,1.3,1.6,2.1,3,2.3c1.8,0.2,3.3-0.2,4.7-1.3
		c0.3-0.2,0.6-0.4,0.8-0.7c1.2-1.2,2.5-2.2,4-3.1c0.8-0.5,1.6-1.1,2.2-1.9c1.4-1.8,1.9-3.8,1.2-6c-0.2-0.8-0.6-1.5-1.2-2.1
		c-0.5-0.6-1.1-1.2-1.6-1.8c-0.7-0.8-1.2-1.8-1.3-2.9c-0.2-1.4,0.2-2.6,1.3-3.6c1-0.9,2.2-1.4,3.6-1.7c1.3-0.3,2.6-0.3,4-0.2
		C528.7,181.1,530.9,181.2,533.1,181.3C533.1,181.3,533.1,181.3,533.1,181.3z"/>
	<path class="st0" d="M310.6,200c0-1,0.1-1.9,0.1-2.7c0.1-1.9-0.5-3.5-1.8-4.8c-0.5-0.5-1-1-1.5-1.5c-0.3-0.3-0.6-0.6-0.9-1
		c-0.5-0.8-0.7-1.6-0.4-2.5c0.5-1.8,1.6-2.9,3.4-3.4c0.9-0.2,1.8-0.3,2.6-0.3c1.7,0,3.4,0.1,5,0.3c2,0.2,4.1,0.4,6.1,0.5
		c1,0,1.9,0.2,2.9,0.4c1.7,0.3,2.9,1.4,3.5,2.9c0.8,1.9,0.8,3.8,0.1,5.7c-0.5,1.2-1.4,1.9-2.6,1.9c-1,0-2,0-2.9,0
		c-0.9,0-1.8,0.2-2.5,0.7c-0.9,0.6-1.4,1.4-1.4,2.4c0,0.7,0.1,1.4,0.3,2.1c0.4,2.1,0.7,4.2,0.8,6.3c0.2,3.7,0,7.5-0.4,11.2
		c-0.1,1.4-0.3,2.8-0.4,4.2c-0.2,2,0,4.1,0.3,6.1c0.1,0.7,0.2,1.4,0.3,2.1c0.1,2.5-1.5,4.2-4,4.3c-0.6,0-1.2,0-1.9-0.2
		c-1.3-0.3-2.5-0.1-3.7,0.2c-1.1,0.3-2.2,0.5-3.4,0.8c-2,0.4-4.1,0.2-6.1-0.3c-1.6-0.4-2.7-1.4-3.2-2.9c-0.3-0.7-0.5-1.3-0.7-2
		c-0.4-1.4-1-2.7-1.8-3.8c-0.4-0.5-0.7-1-1-1.6c-0.4-0.8-0.8-1.6-0.9-2.5c-0.1-0.4-0.2-0.9-0.3-1.3c-0.1-0.6-0.5-1.2-1-1.5
		c-0.1,0-0.1-0.1-0.2-0.1c-1.4-0.6-2-1.7-2.3-3c-0.2-0.9-0.5-1.9-0.8-2.8c-0.7-1.7-2.4-2.5-4.1-1.9c-0.7,0.2-1.2,0.7-1.4,1.4
		c-0.1,0.4-0.2,0.9-0.2,1.3c-0.1,1.7-0.2,3.4-0.3,5.1c-0.1,1.4,0.1,2.8,0.7,4.2c0.4,1,0.8,2,1.1,3c0.3,0.9,1,1.5,1.9,1.6
		c0.2,0,0.3,0.1,0.5,0.1c1.3,0.1,2.1,0.8,2.6,2c0.3,0.7,0.6,1.5,0.9,2.2c0.6,2.1-0.4,4.1-2.5,4.9c-0.9,0.3-1.9,0.5-2.9,0.3
		c-1.2-0.2-2.5-0.3-3.7-0.5c-3.6-0.5-7.3-0.5-10.9-0.2c-1.3,0.1-2.6,0.3-3.9,0.7c-1.7,0.5-2.7,0.1-3.7-1.7c-0.6-1.2-0.9-2.5-0.9-3.9
		c0.1-1.7,0.9-2.8,2.4-3.5c0.7-0.3,1.5-0.4,2.3-0.5c0.8-0.1,1.6-0.1,2.4-0.1c1.4-0.1,2.2-0.9,2.6-2.3c0.3-1,0.4-1.9,0.4-2.9
		c0-1.3-0.1-2.7-0.3-4c-0.3-2.7-0.3-5.3,0.1-8c0.3-2.2,0.7-4.4,1-6.6c0.2-1.3,0.4-2.6,0.4-4c0.1-1,0-2-0.1-2.9
		c-0.4-2.4-1.6-4.3-3.9-5.4c-0.6-0.3-1.1-0.5-1.7-0.8c-0.7-0.4-1.3-1-1.7-1.7c-0.7-1.4-1-2.8-0.8-4.4c0.1-0.7,0.4-1.4,1.1-1.8
		c2.7-1.7,5.5-2.8,8.8-2c0.9,0.2,1.7,0.4,2.6,0.7c2.2,0.7,4.3,0.9,6.6,0.4c0.7-0.2,1.4-0.3,2.1-0.4c1.5-0.2,3-0.2,4.5,0.3
		c1.4,0.4,2.3,1.2,2.9,2.5c0.3,0.6,0.5,1.1,0.7,1.7c0.6,1.7,1.4,3.2,2.5,4.7c0.2,0.3,0.4,0.6,0.6,0.9c1.2,1.7,2.1,3.5,2.7,5.5
		c0.3,1.1,0.7,2.2,1.1,3.3c0.7,1.8,1.7,3.3,3,4.7c0.4,0.4,1,0.8,1.5,1.1c0.6,0.3,1.2,0.3,1.8-0.1c1.1-0.6,1.7-1.5,1.9-2.8
		c0.1-0.7,0-1.4,0-2.1C310.7,201.3,310.6,200.6,310.6,200z"/>
	<path class="st0" d="M363.2,181.7c3.6,0,6.9,0.5,10.2,1.2c3.4,0.8,6.3,2.3,8.8,4.8c1.1,1.1,2.1,2.1,3.2,3.2c0.3,0.3,0.6,0.7,0.9,1
		c2.1,2.3,2.5,5,1.5,7.9c-0.8,2.4-2.3,4.4-4.3,5.9c-0.7,0.5-1.5,1-2.2,1.5c-1.2,0.9-1.6,2-1.2,3.5c0.3,1,0.7,1.8,1.5,2.5
		c0.5,0.5,1.1,0.9,1.7,1.3c0.6,0.5,1.3,0.9,2,1.3c2.2,1.5,3.3,3.6,3.6,6.3c0.1,0.8,0.1,1.6,0,2.4c-0.2,2.6-0.5,5.1-1.1,7.6
		c-0.3,1.2-0.7,2.4-1.3,3.5c-0.6,1.1-1.3,2.1-2.3,2.9c-1.2,1-2.5,1.6-4.1,1.6c-0.7,0-1.4,0-2.1-0.1c-1.9-0.2-3.7-0.2-5.6,0
		c-0.6,0.1-1.2,0.1-1.9,0.1c-1.4,0-2.8-0.1-4.2-0.4c-4.5-0.8-5-0.7-9.5,0.3c-1.2,0.3-2.4,0.5-3.6,0.8c-1.6,0.3-3.2,0.4-4.8,0.1
		c-2.3-0.4-4.6-0.4-6.9,0.1c-0.9,0.2-1.8,0.3-2.6,0.4c-3.6,0.3-6.4-2.2-6.7-5.7c-0.3-3.3,1.7-6.5,4.8-7.5c0.6-0.2,1.2-0.3,1.8-0.4
		c0.5-0.1,1.1-0.1,1.6-0.1c1.2-0.2,1.9-0.9,2-2.1c0-0.7,0-1.4-0.1-2.1c-0.1-0.6-0.3-1.2-0.5-1.8c-0.7-2.2-0.8-4.4-0.6-6.6
		c0.2-2.3,0.6-4.6,1-6.9c0.2-1.5,0.5-3,0.6-4.5c0.2-1.4,0.1-2.8-0.1-4.2c-0.3-1.5-1-2.8-2.1-3.9c-0.6-0.6-1.3-1.2-2-1.8
		c-2.2-1.9-2.9-4.4-3-7.1c0-0.4,0.1-0.9,0.2-1.3c0.2-0.5,0.5-1,1-1.2c0.6-0.2,1.2-0.5,1.8-0.5c1.7-0.2,3.4-0.3,5-0.5
		c0.8-0.1,1.6,0,2.4,0c3.1,0.1,6.2-0.3,9.3-0.8C358.1,182.1,360.7,181.6,363.2,181.7z M367,206.7c1.4-0.1,2.8-0.1,4.2-0.6
		c1-0.4,1.8-1.1,2.2-2.2c0.3-0.8,0.5-1.7,0.5-2.6c0-2-0.5-3.9-1.6-5.5c-1.1-1.6-2.5-2.9-4.3-3.9c-1.6-0.9-3.4-1-5.1-0.3
		c-1.8,0.8-3.4,1.9-4.6,3.5c-1.3,1.6-1.7,3.5-1.3,5.5c0.7,3.1,2.5,5,5.6,5.6C364.2,206.5,365.6,206.6,367,206.7z M359.6,222.8
		c0,1.3,0.3,2.7,0.7,4.1c0.3,0.8,0.7,1.6,1.3,2.3c0.7,0.8,1.6,1.4,2.7,1.4c0.7,0,1.4,0,2.1-0.2c1.8-0.4,3.3-1.3,4.4-2.7
		c1.2-1.5,2-3.1,2.5-4.9c0.1-0.5,0.2-1,0.3-1.6c0.1-1.8-0.7-3.1-2.2-3.9c-1.3-0.7-2.7-0.7-4.1-0.5c-1.4,0.3-2.8,0.5-4.2,0.8
		c-0.3,0.1-0.7,0.1-1,0.2c-0.9,0.2-1.5,0.8-1.9,1.7C359.6,220.6,359.6,221.7,359.6,222.8z"/>
	<path class="st0" d="M102.3,182.2c1.7,0.1,3.4,0,5.1,0.2c2.4,0.2,4.7,0.8,6.9,1.7c0.8,0.4,1.6,0.7,2.5,0.9c0.6,0.2,1.2,0.3,1.8,0.4
		c1,0.1,2-0.1,2.7-0.8c0.6-0.5,1.2-1,1.8-1.6c2.1-2.2,4.7-3.1,7.6-3.3c0.4,0,0.9,0,1.3,0.1c1.2,0.2,2.2,0.9,2.6,2
		c0.3,0.8,0.6,1.7,0.7,2.6c0.2,1.7,0.3,3.4,0.4,5c0.1,2,0.3,4.1,0.4,6.1c0,0.7,0.1,1.4,0.1,2.1c0,0.7-0.1,1.4-0.3,2.1
		c-1.1,5.4-7.1,6.7-10.8,3.3c-0.6-0.6-1.1-1.4-1.6-2.1c-0.6-0.8-1-1.7-1.6-2.5c-1.9-2.7-4.4-4.3-7.6-5c-1-0.2-2.1-0.3-3.2-0.2
		c-0.8,0.1-1.6,0.3-2.3,0.6c-2.3,1.1-3.4,3.6-2.7,6c0.5,1.7,1.5,3.2,2.5,4.6c0.4,0.6,1,1,1.8,1.1c1.4,0.3,2.7,0.7,4.1,1.3
		c0.8,0.4,1.7,0.3,2.6,0.3c4.1-0.4,4.2-0.1,7.5,1.3c1.1,0.5,2.3,0.8,3.5,1.2c1.2,0.4,2.3,0.8,3.4,1.5c2.6,1.5,3.9,3.8,3.9,6.8
		c0,1.4-0.2,2.8-0.6,4.2c-0.3,1-0.6,2.1-0.8,3.1c-0.3,1.2-0.3,2.5,0.3,3.6c0.1,0.2,0.2,0.5,0.3,0.7c0.2,0.6,0.2,1.2,0,1.8
		c-0.2,0.5-0.4,1-0.8,1.4c-0.9,1.3-2.1,2.2-3.4,2.9c-3.8,1.9-7.9,2.7-12.1,1.9c-1.6-0.3-3.1-0.7-4.7-0.9c-1.1-0.2-2.3-0.4-3.4-0.4
		c-1.3-0.1-2.7,0-3.9,0.5c-1.2,0.5-2.4,0.5-3.7,0.2c-1.1-0.3-2.3-0.2-3.4,0c-0.7,0.1-1.2-0.1-1.7-0.6c-0.3-0.3-0.6-0.7-0.9-1
		c-0.5-0.5-1.2-0.5-1.7-0.3c-0.9,0.4-1.6,1.1-1.9,2.1c-0.2,0.7-0.4,1.4-0.6,2c-0.2,0.7-0.7,1.2-1.4,1.5c-1.7,0.7-3.4,1.1-5.2,1
		c-1.4-0.1-2.3-0.9-2.6-2.2c-0.2-0.9-0.2-1.8,0-2.6c0.1-0.6,0.2-1.2,0.5-1.8c0.7-1.8,0.5-3.5-0.3-5.2c-0.2-0.5-0.4-1-0.6-1.5
		c-0.6-1.7-0.7-3.5-0.4-5.3c0.2-1.1,0.5-2.1,1.1-3c1.1-1.9,3.9-3.5,6.7-2.5c0.7,0.3,1.5,0.6,2.1,1.1c0.8,0.5,1.4,1.3,1.8,2.3
		c0.2,0.6,0.4,1.2,0.6,1.8c0.3,0.9,0.9,1.5,1.8,1.9c0.5,0.2,1,0.4,1.5,0.5c0.6,0.2,1.2,0.3,1.8,0.4c1.5,0.1,3,0.5,4.3,1.2
		c0.8,0.4,1.7,0.4,2.6,0.2c1.4-0.3,2.8-0.4,4.2-0.6c0.7-0.1,1.4-0.1,2.1-0.2c2.3-0.4,4.1-1.6,5.2-3.8c0.8-1.6,0.6-3.1-0.6-4.5
		c-0.7-0.8-1.5-1.5-2.5-1.9c-1.9-0.8-3.8-1.6-5.6-2.5c-0.9-0.4-1.9-0.6-2.9-0.5c-1.5,0.2-3,0.1-4.4-0.5c-0.9-0.4-1.9-0.4-2.8,0
		c-0.3,0.1-0.7,0.3-1,0.4c-1,0.4-2.1,0.4-3.1,0c-0.7-0.3-1.3-0.6-1.9-0.9c-1.5-0.8-2.9-1.7-4.4-2.6c-1-0.6-1.9-1.3-2.8-2.1
		c-1-0.9-1.7-2.1-1.9-3.4c-0.3-1.9-0.7-3.8-0.9-5.8c-0.2-1.3,0-2.7,0.4-3.9c0.5-1.7,1.2-3.3,2-4.9c1.8-3.8,4.9-6,9-6.8
		c1.3-0.3,2.6-0.5,4-0.5C100,182.3,101.2,182.3,102.3,182.2C102.3,182.3,102.3,182.2,102.3,182.2z"/>
	<path class="st0" d="M174.6,238.3c-2.6,0-5.3-0.4-7.9-1.2c-1-0.3-2-0.7-3-1c-0.9-0.3-1.9-0.6-2.8-0.8c-2.2-0.5-4.2-0.1-6.2,1
		c-0.8,0.4-1.5,1-2.2,1.4c-1.4,0.9-2.9,1.2-4.6,1.1c-2.4-0.2-4.3-2.1-4.5-4.5c-0.1-1,0-2,0.2-2.9c0.2-0.9,0.5-1.9,0.8-2.8
		c0.6-1.7,0.5-3.3-0.3-4.9c-0.3-0.6-0.6-1.3-0.8-2c-0.2-0.5-0.3-1-0.4-1.5c-0.1-1,0.2-1.7,1-2.3c0.2-0.2,0.4-0.3,0.7-0.4
		c1.8-0.9,3.7-1.3,5.7-1.1c1.8,0.1,3,1,3.6,2.6c0.3,0.8,0.6,1.7,0.9,2.5c0.6,1.5,1.6,2.8,2.9,3.7c1.2,0.8,2.5,1.4,4,1.3
		c1.7-0.1,3.4,0,5.1,0c2.1,0.1,3.2-0.7,3.4-3.2c0.1-0.7,0-1.4-0.1-2.1c-0.2-1-0.8-1.8-1.7-2.2c-0.5-0.2-1-0.4-1.5-0.5
		c-0.7-0.2-1.4-0.4-2.1-0.6c-1.1-0.3-2.1-0.9-3-1.7c-0.6-0.6-1.2-1.1-1.7-1.7c-1-1-2.2-1.8-3.5-2.3c-0.6-0.2-1.2-0.5-1.7-0.7
		c-0.7-0.3-1.3-0.6-1.9-0.9c-4-2-6.2-5.2-6.6-9.6c-0.2-2.2-0.2-4.4-0.1-6.6c0-1.8,0.7-3.3,1.8-4.6c1.8-2,3.8-3.7,6.2-5
		c1.3-0.7,2.6-1.1,4-1.3c1.5-0.2,3-0.4,4.5-0.5c2-0.1,4.1-0.4,6-1c2.4-0.8,4.9-0.8,7.4-0.2c1,0.3,2.1,0.5,3.1,0.7
		c0.5,0.1,1,0.2,1.5,0.4c2.3,0.7,4.6,0.6,6.7-0.7c0.3-0.2,0.6-0.3,1-0.4c1.4-0.6,2.8-0.4,4.1,0.3c1,0.5,1.6,1.4,1.8,2.5
		c0.1,0.6,0.1,1.2,0,1.9c-0.1,0.8-0.2,1.6-0.3,2.4c-0.4,1.9-0.3,3.7,0.1,5.5c0.3,1.2,0.5,2.4,0.8,3.6c0.2,0.8,0.3,1.6,0.2,2.4
		c-0.1,0.9-0.5,1.5-1.3,1.9c-0.4,0.2-0.8,0.3-1.2,0.4c-1,0.2-2.1,0.3-3.2,0.1c-1.8-0.2-3.2-1-4.1-2.6c-0.4-0.7-0.8-1.4-1.3-2
		c-0.6-0.9-1.4-1.4-2.4-1.5c-0.8-0.1-1.6-0.2-2.4-0.2c-2.3,0-4.1-0.9-5.6-2.6c-0.4-0.5-0.9-0.9-1.3-1.3c-0.6-0.6-1.4-0.8-2.2-0.6
		c-0.4,0.1-0.9,0.1-1.3,0.3c-1.5,0.6-3,1.1-4.4,1.8c-1.9,0.9-2.4,2.1-1.9,4.1c0.6,2.1,1.9,3.6,3.9,4.4c1,0.4,2,0.7,3.1,0.8
		c1.4,0.2,2.8,0.3,4.2,0.5c2.1,0.2,4.2,0.8,6.1,1.7c2.3,1.1,4.6,2.3,6.9,3.5c0.8,0.4,1.5,0.9,2.3,1.4c1.8,1.3,3,3,3.5,5.1
		c0.7,3,1,6.1,0.6,9.2c-0.2,1.7-0.6,3.3-1.2,4.9c-1.2,3.1-3.4,5.4-6.4,6.8C182,237.7,178.4,238.3,174.6,238.3z"/>
	<path class="st0" d="M67,236.7c-3-0.3-5.6,0.1-8.2,0.6c-1.7,0.4-3.5,0.5-5.3,0.4c-1.2-0.1-2.3-0.3-3.3-0.9
		c-1.6-0.8-2.4-2.1-2.4-3.9c0-1.4,0.4-2.6,1-3.8c0.4-0.8,0.9-1.6,1.2-2.4c0.5-1.2,0.6-2.4,0.2-3.6c-0.3-1-0.9-1.8-1.7-2.3
		c-2.1-1.2-4.3-1.7-6.6-1c-1.1,0.3-1.9,1-2.4,2c-1.3,2.8-1.4,5.7,0.3,8.4c0.3,0.5,0.7,1.1,1,1.6c1.5,2.5,0.1,6.6-3.4,7.3
		c-1,0.2-2.1,0.4-3.2,0.4c-3.3,0-6.6,0.1-9.8,0.5c-1.5,0.2-3,0-4.5-0.3c-2.1-0.5-3.7-1.7-4.9-3.5c-0.9-1.4-1-2.8-0.3-4.3
		c0.4-0.8,0.9-1.5,1.5-2.2c0.6-0.8,1.3-1.4,2-2.1c1.2-1.2,2.4-2.4,3.5-3.6c3.1-3.3,5.4-7,7.1-11.2c1-2.5,1.9-5,2.6-7.6
		c1.4-5.4,2.8-10.8,4.2-16.2c0.3-1.2,0.7-2.4,1-3.6c0.2-0.6,0.4-1.2,0.7-1.7c1.1-2.7,3.2-4.2,6-4.7c3.2-0.5,6.2-0.1,9.1,1.4
		c2.5,1.3,4.3,3.1,5.4,5.7c0.6,1.2,1,2.5,1.3,3.8c0.4,1.8,0.7,3.7,1,5.5c0.5,3.1,1.1,6.1,1.9,9.1c1.4,5,3.6,9.6,7,13.6
		c1.1,1.3,2.1,2.6,3.2,4c1.5,2,2.8,4.1,3.6,6.5c0.4,1.1,0.7,2.2,0.8,3.4c0.1,1.8-0.7,3.1-2.3,3.8c-1.1,0.5-2.2,0.8-3.3,0.8
		C69.6,236.7,68.2,236.7,67,236.7z M41.8,206.7c0.1,0.8,0.2,1.7,0.4,2.5c0.3,1.1,1.2,1.7,2.3,1.8c1.1,0.1,2.1-0.1,3-0.7
		c1.2-0.7,1.8-1.6,1.9-3c0.2-1.6-0.3-3.1-1.1-4.6c-0.2-0.4-0.5-0.7-0.8-1c-0.6-0.6-1.3-0.8-2.2-0.6c-1.8,0.4-2.9,1.6-3.4,3.3
		C42,205.2,41.9,205.9,41.8,206.7z"/>
</g>
</svg>
